<?xml version="1.0" encoding="UTF-8"?>
<!DOCTYPE svg PUBLIC "-//W3C//DTD SVG 1.1//EN" "http://www.w3.org/Graphics/SVG/1.1/DTD/svg11.dtd">
<!-- Creator: CorelDRAW 2018 (64-Bit) -->
<svg xmlns="http://www.w3.org/2000/svg" xml:space="preserve" width="200.101mm" height="200.576mm" version="1.1" style="shape-rendering:geometricPrecision; text-rendering:geometricPrecision; image-rendering:optimizeQuality; fill-rule:evenodd; clip-rule:evenodd"
viewBox="0 0 3681.44 3690.17"
 xmlns:xlink="http://www.w3.org/1999/xlink">
 <defs>
  <style type="text/css">
   <![CDATA[
    .str0 {stroke:#332C2B;stroke-width:3.68;stroke-miterlimit:22.9256}
    .str1 {stroke:#F8B90F;stroke-width:3.68;stroke-miterlimit:22.9256}
    .str2 {stroke:#FDD100;stroke-width:3.68;stroke-miterlimit:22.9256}
    .fil3 {fill:none}
    .fil2 {fill:#B81218}
    .fil1 {fill:#F8B90F}
    .fil0 {fill:#FDD100}
   ]]>
  </style>
 </defs>
 <g id="图层_x0020_1">
  <metadata id="CorelCorpID_0Corel-Layer"/>
  <g id="_1639689249184">
   <g>
    <polygon class="fil0" points="1.87,3681.41 1.87,1.84 3681.44,1.84 3681.44,3681.41 "/>
    <polygon class="fil1" points="1447.76,660.95 650.79,1.84 1.87,1.84 1.87,1117.44 499.12,1778.39 499.52,1778.3 "/>
    <polygon class="fil0" points="1933.84,88.19 1451.29,656.79 1452.37,664.76 2273.49,1343.85 3681.44,999.04 3681.44,357.36 "/>
    <polygon class="fil0" points="1451.29,656.79 1362.96,1.84 650.79,1.84 1447.76,660.95 "/>
    <polygon class="fil1" points="1362.96,1.84 1451.29,656.79 1933.84,88.19 1373.17,1.84 "/>
    <polygon class="fil0" points="499.12,1778.39 1.87,1117.44 1.87,1900.17 "/>
    <polygon class="fil1" points="474.64,3681.41 1.87,2563.86 1.87,3681.41 "/>
    <polygon class="fil0" points="1.87,2563.86 474.64,3681.41 1442.92,3681.41 1800.4,3508.09 499.27,1778.6 1.87,2364.7 "/>
    <polygon class="fil1" points="1.87,2364.7 499.27,1778.6 499.12,1778.39 1.87,1900.17 "/>
    <polygon class="fil1" points="1800.4,3508.09 1442.92,3681.41 1859.23,3681.41 1843.6,3565.52 "/>
    <polygon class="fil1" points="499.27,1778.6 1800.4,3508.09 1833.68,3491.96 1567.29,1516.8 499.52,1778.3 "/>
    <polygon class="fil0" points="499.52,1778.3 1567.29,1516.8 1452.37,664.76 1447.76,660.95 "/>
    <polygon class="fil0" points="1567.29,1516.8 1833.68,3491.96 2899.37,2975.29 3322.45,2211.36 2273.49,1343.85 "/>
    <polygon class="fil1" points="2899.37,2975.29 1833.68,3491.96 1843.6,3565.52 1930.79,3681.41 2508.31,3681.41 "/>
    <polygon class="fil0" points="1930.79,3681.41 1843.6,3565.52 1859.23,3681.41 "/>
    <polygon class="fil1" points="1567.29,1516.8 2273.49,1343.85 1452.37,664.76 "/>
    <polygon class="fil1" points="2273.49,1343.85 3322.45,2211.36 3681.44,1563.16 3681.44,999.04 "/>
    <polygon class="fil0" points="3681.44,2596.13 2899.37,2975.29 2508.31,3681.41 3681.44,3681.41 "/>
    <polygon class="fil1" points="2899.37,2975.29 3681.44,2596.13 3681.44,2508.24 3322.45,2211.36 "/>
    <polygon class="fil0" points="3322.45,2211.36 3681.44,2508.24 3681.44,1563.16 "/>
    <polygon class="fil1" points="2007.12,1.84 1933.84,88.19 3681.44,357.36 3681.44,1.84 "/>
    <polygon class="fil0" points="1373.17,1.84 1933.84,88.19 2007.12,1.84 "/>
    <polygon class="fil2" points="1843.6,3565.52 1833.68,3491.96 1800.4,3508.09 "/>
    <polygon class="fil1" points="1843.6,3565.52 1833.68,3491.96 1800.4,3508.09 "/>
   </g>
   <polygon class="fil1" points="3681.44,3227.77 2508.31,3681.41 3681.44,3681.41 "/>
   <polygon class="fil0" points="1.87,1117.44 650.79,1.84 1.87,1.84 "/>
   <line class="fil3 str0" x1="1.87" y1="999.04" x2="650.79" y2= "1.84" />
   <polygon class="fil1" points="1843.6,3565.52 1859.23,3681.41 1930.79,3681.41 "/>
   <polygon class="fil1 str1" points="1.87,1117.44 650.79,1.84 1.87,999.04 "/>
   <polygon class="fil1" points="650.79,1.84 1.87,999.04 1.87,1563.16 499.12,1778.39 499.52,1778.3 "/>
   <polygon class="fil1 str1" points="1800.4,3508.09 1442.92,3681.41 1859.23,3681.41 1930.79,3681.41 2508.31,3681.41 2899.37,2975.29 1833.68,3491.96 "/>
   <polygon class="fil1 str1" points="1800.4,3508.09 1833.68,3491.96 1567.29,1516.8 499.52,1778.3 499.27,1778.6 "/>
   <polygon class="fil0 str2" points="1.87,1900.17 499.12,1778.39 1.87,1563.16 "/>
   <polygon class="fil0 str2" points="499.12,1778.39 1.87,1900.17 1.87,2364.7 499.27,1778.6 "/>
   <polygon class="fil0 str2" points="499.27,1778.6 1.87,2364.7 1.87,2508.24 499.29,1778.63 "/>
   <polygon class="fil1 str1" points="474.61,3681.37 499.49,1778.89 499.27,1778.6 1.84,2508.21 1.84,2563.82 "/>
   <polygon class="fil1 str1" points="1442.92,1.84 1447.76,660.95 2007.12,1.84 "/>
   <polygon class="fil0 str2" points="650.79,1.84 1442.92,1.84 1447.76,660.95 "/>
  </g>
 </g>
</svg>
